<?xml version="1.0" encoding="UTF-8" standalone="no"?>
<!DOCTYPE svg PUBLIC "-//W3C//DTD SVG 1.1//EN"
 "http://www.w3.org/Graphics/SVG/1.1/DTD/svg11.dtd">
<!-- Generated by graphviz version 2.46.1 (20210213.1702)
 -->
<!-- Title: dependencies Pages: 1 -->
<svg width="6163pt" height="284pt"
 viewBox="0.00 0.00 6163.00 284.00" xmlns="http://www.w3.org/2000/svg" xmlns:xlink="http://www.w3.org/1999/xlink">
<g id="graph0" class="graph" transform="scale(1 1) rotate(0) translate(4 280)">
<title>dependencies</title>
<polygon fill="white" stroke="transparent" points="-4,4 -4,-280 6159,-280 6159,4 -4,4"/>
<text text-anchor="start" x="3056.51" y="-42.4" font-family="sans-serif" font-weight="bold" font-size="14.00">Legend</text>
<polygon fill="#ffffb3" stroke="transparent" points="2843.5,-10 2843.5,-30 2863.5,-30 2863.5,-10 2843.5,-10"/>
<text text-anchor="start" x="2867.13" y="-15.4" font-family="sans-serif" font-size="14.00"> &#160;Declarations</text>
<polygon fill="#8dd3c7" stroke="transparent" points="2956.5,-10 2956.5,-30 2976.5,-30 2976.5,-10 2956.5,-10"/>
<text text-anchor="start" x="2980.23" y="-15.4" font-family="sans-serif" font-size="14.00"> &#160;Module</text>
<polygon fill="#80b1d3" stroke="transparent" points="3042.5,-10 3042.5,-30 3062.5,-30 3062.5,-10 3042.5,-10"/>
<text text-anchor="start" x="3066.28" y="-15.4" font-family="sans-serif" font-size="14.00"> &#160;Bootstrap</text>
<polygon fill="#fdb462" stroke="transparent" points="3139.5,-10 3139.5,-30 3159.5,-30 3159.5,-10 3139.5,-10"/>
<text text-anchor="start" x="3163.17" y="-15.4" font-family="sans-serif" font-size="14.00"> &#160;Providers</text>
<polygon fill="#fb8072" stroke="transparent" points="3235.5,-10 3235.5,-30 3255.5,-30 3255.5,-10 3235.5,-10"/>
<text text-anchor="start" x="3259.23" y="-15.4" font-family="sans-serif" font-size="14.00"> &#160;Exports</text>
<g id="clust1" class="cluster">
<title>cluster_LibModule</title>
<polygon fill="none" stroke="black" stroke-dasharray="1,5" points="8,-70 8,-268 6147,-268 6147,-70 8,-70"/>
</g>
<g id="clust2" class="cluster">
<title>cluster_LibModule_declarations</title>
<polygon fill="none" stroke="black" points="3287,-78 3287,-130 6139,-130 6139,-78 3287,-78"/>
</g>
<g id="clust20" class="cluster">
<title>cluster_LibModule_imports</title>
<polygon fill="none" stroke="black" points="16,-78 16,-130 3279,-130 3279,-78 16,-78"/>
</g>
<g id="clust21" class="cluster">
<title>cluster_LibModule_exports</title>
<polygon fill="none" stroke="black" points="1690,-208 1690,-260 3653,-260 3653,-208 1690,-208"/>
</g>
<!-- FileBrowserDialogComponent -->
<g id="node1" class="node">
<title>FileBrowserDialogComponent</title>
<polygon fill="#ffffb3" stroke="black" points="6131.14,-122 5942.86,-122 5942.86,-86 6131.14,-86 6131.14,-122"/>
<text text-anchor="middle" x="6037" y="-99.8" font-family="Times,serif" font-size="14.00">FileBrowserDialogComponent</text>
</g>
<!-- LibModule -->
<g id="node18" class="node">
<title>LibModule</title>
<polygon fill="#8dd3c7" stroke="black" points="2861.49,-187 2858.49,-191 2837.49,-191 2834.49,-187 2782.51,-187 2782.51,-151 2861.49,-151 2861.49,-187"/>
<text text-anchor="middle" x="2822" y="-164.8" font-family="Times,serif" font-size="14.00">LibModule</text>
</g>
<!-- FileBrowserDialogComponent&#45;&gt;LibModule -->
<g id="edge1" class="edge">
<title>FileBrowserDialogComponent&#45;&gt;LibModule</title>
<path fill="none" stroke="black" d="M6037,-122.29C6037,-144.21 6037,-178 6037,-178 6037,-178 2871.78,-178 2871.78,-178"/>
<polygon fill="black" stroke="black" points="2871.78,-174.5 2861.78,-178 2871.78,-181.5 2871.78,-174.5"/>
</g>
<!-- DrawerSubMenuComponent -->
<g id="node2" class="node">
<title>DrawerSubMenuComponent</title>
<polygon fill="#ffffb3" stroke="black" points="5924.74,-122 5747.26,-122 5747.26,-86 5924.74,-86 5924.74,-122"/>
<text text-anchor="middle" x="5836" y="-99.8" font-family="Times,serif" font-size="14.00">DrawerSubMenuComponent</text>
</g>
<!-- DrawerSubMenuComponent&#45;&gt;LibModule -->
<g id="edge2" class="edge">
<title>DrawerSubMenuComponent&#45;&gt;LibModule</title>
<path fill="none" stroke="black" d="M5836,-122.17C5836,-143.5 5836,-176 5836,-176 5836,-176 2871.77,-176 2871.77,-176"/>
<polygon fill="black" stroke="black" points="2871.77,-172.5 2861.77,-176 2871.77,-179.5 2871.77,-172.5"/>
</g>
<!-- DrawerComponent -->
<g id="node3" class="node">
<title>DrawerComponent</title>
<polygon fill="#ffffb3" stroke="black" points="5728.8,-122 5605.2,-122 5605.2,-86 5728.8,-86 5728.8,-122"/>
<text text-anchor="middle" x="5667" y="-99.8" font-family="Times,serif" font-size="14.00">DrawerComponent</text>
</g>
<!-- DrawerComponent&#45;&gt;LibModule -->
<g id="edge3" class="edge">
<title>DrawerComponent&#45;&gt;LibModule</title>
<path fill="none" stroke="black" d="M5667,-122.28C5667,-143.32 5667,-175 5667,-175 5667,-175 2871.67,-175 2871.67,-175"/>
<polygon fill="black" stroke="black" points="2871.67,-171.5 2861.67,-175 2871.67,-178.5 2871.67,-171.5"/>
</g>
<!-- ToolbarComponent -->
<g id="node4" class="node">
<title>ToolbarComponent</title>
<polygon fill="#ffffb3" stroke="black" points="5587.65,-122 5462.35,-122 5462.35,-86 5587.65,-86 5587.65,-122"/>
<text text-anchor="middle" x="5525" y="-99.8" font-family="Times,serif" font-size="14.00">ToolbarComponent</text>
</g>
<!-- ToolbarComponent&#45;&gt;LibModule -->
<g id="edge4" class="edge">
<title>ToolbarComponent&#45;&gt;LibModule</title>
<path fill="none" stroke="black" d="M5525,-122.03C5525,-142.77 5525,-174 5525,-174 5525,-174 2871.51,-174 2871.51,-174"/>
<polygon fill="black" stroke="black" points="2871.51,-170.5 2861.51,-174 2871.51,-177.5 2871.51,-170.5"/>
</g>
<!-- NoStockDialogComponent -->
<g id="node5" class="node">
<title>NoStockDialogComponent</title>
<polygon fill="#ffffb3" stroke="black" points="5444.43,-122 5275.57,-122 5275.57,-86 5444.43,-86 5444.43,-122"/>
<text text-anchor="middle" x="5360" y="-99.8" font-family="Times,serif" font-size="14.00">NoStockDialogComponent</text>
</g>
<!-- NoStockDialogComponent&#45;&gt;LibModule -->
<g id="edge5" class="edge">
<title>NoStockDialogComponent&#45;&gt;LibModule</title>
<path fill="none" stroke="black" d="M5360,-122.22C5360,-142.37 5360,-172 5360,-172 5360,-172 2871.61,-172 2871.61,-172"/>
<polygon fill="black" stroke="black" points="2871.61,-168.5 2861.61,-172 2871.61,-175.5 2871.61,-168.5"/>
</g>
<!-- ShopsPipe -->
<g id="node6" class="node">
<title>ShopsPipe</title>
<polygon fill="#ffffb3" stroke="black" points="5257.62,-122 5182.38,-122 5182.38,-86 5257.62,-86 5257.62,-122"/>
<text text-anchor="middle" x="5220" y="-99.8" font-family="Times,serif" font-size="14.00">ShopsPipe</text>
</g>
<!-- ShopsPipe&#45;&gt;LibModule -->
<g id="edge6" class="edge">
<title>ShopsPipe&#45;&gt;LibModule</title>
<path fill="none" stroke="black" d="M5220,-122.31C5220,-142.15 5220,-171 5220,-171 5220,-171 2871.62,-171 2871.62,-171"/>
<polygon fill="black" stroke="black" points="2871.62,-167.5 2861.62,-171 2871.62,-174.5 2871.62,-167.5"/>
</g>
<!-- OnFetchComponent -->
<g id="node7" class="node">
<title>OnFetchComponent</title>
<polygon fill="#ffffb3" stroke="black" points="5164.54,-122 5035.46,-122 5035.46,-86 5164.54,-86 5164.54,-122"/>
<text text-anchor="middle" x="5100" y="-99.8" font-family="Times,serif" font-size="14.00">OnFetchComponent</text>
</g>
<!-- OnFetchComponent&#45;&gt;LibModule -->
<g id="edge7" class="edge">
<title>OnFetchComponent&#45;&gt;LibModule</title>
<path fill="none" stroke="black" d="M5100,-122.11C5100,-141.34 5100,-169 5100,-169 5100,-169 2871.54,-169 2871.54,-169"/>
<polygon fill="black" stroke="black" points="2871.54,-165.5 2861.54,-169 2871.54,-172.5 2871.54,-165.5"/>
</g>
<!-- SearchInputComponent -->
<g id="node8" class="node">
<title>SearchInputComponent</title>
<polygon fill="#ffffb3" stroke="black" points="5017.47,-122 4868.53,-122 4868.53,-86 5017.47,-86 5017.47,-122"/>
<text text-anchor="middle" x="4943" y="-99.8" font-family="Times,serif" font-size="14.00">SearchInputComponent</text>
</g>
<!-- SearchInputComponent&#45;&gt;LibModule -->
<g id="edge8" class="edge">
<title>SearchInputComponent&#45;&gt;LibModule</title>
<path fill="none" stroke="black" d="M4943,-122.17C4943,-141.09 4943,-168 4943,-168 4943,-168 2871.55,-168 2871.55,-168"/>
<polygon fill="black" stroke="black" points="2871.55,-164.5 2861.55,-168 2871.55,-171.5 2871.55,-164.5"/>
</g>
<!-- BottomBarComponent -->
<g id="node9" class="node">
<title>BottomBarComponent</title>
<polygon fill="#ffffb3" stroke="black" points="4850.55,-122 4707.45,-122 4707.45,-86 4850.55,-86 4850.55,-122"/>
<text text-anchor="middle" x="4779" y="-99.8" font-family="Times,serif" font-size="14.00">BottomBarComponent</text>
</g>
<!-- BottomBarComponent&#45;&gt;LibModule -->
<g id="edge9" class="edge">
<title>BottomBarComponent&#45;&gt;LibModule</title>
<path fill="none" stroke="black" d="M4779,-122.22C4779,-140.83 4779,-167 4779,-167 4779,-167 2871.53,-167 2871.53,-167"/>
<polygon fill="black" stroke="black" points="2871.53,-163.5 2861.53,-167 2871.53,-170.5 2871.53,-163.5"/>
</g>
<!-- DataNotReadyComponent -->
<g id="node10" class="node">
<title>DataNotReadyComponent</title>
<polygon fill="#ffffb3" stroke="black" points="4689.02,-122 4524.98,-122 4524.98,-86 4689.02,-86 4689.02,-122"/>
<text text-anchor="middle" x="4607" y="-99.8" font-family="Times,serif" font-size="14.00">DataNotReadyComponent</text>
</g>
<!-- DataNotReadyComponent&#45;&gt;LibModule -->
<g id="edge10" class="edge">
<title>DataNotReadyComponent&#45;&gt;LibModule</title>
<path fill="none" stroke="black" d="M4607,-122.3C4607,-140.27 4607,-165 4607,-165 4607,-165 2871.78,-165 2871.78,-165"/>
<polygon fill="black" stroke="black" points="2871.78,-161.5 2861.78,-165 2871.78,-168.5 2871.78,-161.5"/>
</g>
<!-- UploadFilesComponent -->
<g id="node11" class="node">
<title>UploadFilesComponent</title>
<polygon fill="#ffffb3" stroke="black" points="4506.77,-122 4357.23,-122 4357.23,-86 4506.77,-86 4506.77,-122"/>
<text text-anchor="middle" x="4432" y="-99.8" font-family="Times,serif" font-size="14.00">UploadFilesComponent</text>
</g>
<!-- UploadFilesComponent&#45;&gt;LibModule -->
<g id="edge11" class="edge">
<title>UploadFilesComponent&#45;&gt;LibModule</title>
<path fill="none" stroke="black" d="M4432,-122C4432,-139.68 4432,-164 4432,-164 4432,-164 2871.8,-164 2871.8,-164"/>
<polygon fill="black" stroke="black" points="2871.8,-160.5 2861.8,-164 2871.8,-167.5 2871.8,-160.5"/>
</g>
<!-- DashCardComponent -->
<g id="node12" class="node">
<title>DashCardComponent</title>
<polygon fill="#ffffb3" stroke="black" points="4338.81,-122 4201.19,-122 4201.19,-86 4338.81,-86 4338.81,-122"/>
<text text-anchor="middle" x="4270" y="-99.8" font-family="Times,serif" font-size="14.00">DashCardComponent</text>
</g>
<!-- DashCardComponent&#45;&gt;LibModule -->
<g id="edge12" class="edge">
<title>DashCardComponent&#45;&gt;LibModule</title>
<path fill="none" stroke="black" d="M4270,-122.02C4270,-139.37 4270,-163 4270,-163 4270,-163 2871.86,-163 2871.86,-163"/>
<polygon fill="black" stroke="black" points="2871.86,-159.5 2861.86,-163 2871.86,-166.5 2871.86,-159.5"/>
</g>
<!-- DialogDeleteComponent -->
<g id="node13" class="node">
<title>DialogDeleteComponent</title>
<polygon fill="#ffffb3" stroke="black" points="4182.97,-122 4027.03,-122 4027.03,-86 4182.97,-86 4182.97,-122"/>
<text text-anchor="middle" x="4105" y="-99.8" font-family="Times,serif" font-size="14.00">DialogDeleteComponent</text>
</g>
<!-- DialogDeleteComponent&#45;&gt;LibModule -->
<g id="edge13" class="edge">
<title>DialogDeleteComponent&#45;&gt;LibModule</title>
<path fill="none" stroke="black" d="M4105,-122.04C4105,-138.73 4105,-161 4105,-161 4105,-161 2871.8,-161 2871.8,-161"/>
<polygon fill="black" stroke="black" points="2871.8,-157.5 2861.8,-161 2871.8,-164.5 2871.8,-157.5"/>
</g>
<!-- UploadFileProgressComponent -->
<g id="node14" class="node">
<title>UploadFileProgressComponent</title>
<polygon fill="#ffffb3" stroke="black" points="4009.03,-122 3816.97,-122 3816.97,-86 4009.03,-86 4009.03,-122"/>
<text text-anchor="middle" x="3913" y="-99.8" font-family="Times,serif" font-size="14.00">UploadFileProgressComponent</text>
</g>
<!-- UploadFileProgressComponent&#45;&gt;LibModule -->
<g id="edge14" class="edge">
<title>UploadFileProgressComponent&#45;&gt;LibModule</title>
<path fill="none" stroke="black" d="M3913,-122.03C3913,-138.4 3913,-160 3913,-160 3913,-160 2871.8,-160 2871.8,-160"/>
<polygon fill="black" stroke="black" points="2871.8,-156.5 2861.8,-160 2871.8,-163.5 2871.8,-156.5"/>
</g>
<!-- VerifyEMailDialogComponent -->
<g id="node15" class="node">
<title>VerifyEMailDialogComponent</title>
<polygon fill="#ffffb3" stroke="black" points="3798.46,-122 3607.54,-122 3607.54,-86 3798.46,-86 3798.46,-122"/>
<text text-anchor="middle" x="3703" y="-99.8" font-family="Times,serif" font-size="14.00">VerifyEMailDialogComponent</text>
</g>
<!-- VerifyEMailDialogComponent&#45;&gt;LibModule -->
<g id="edge15" class="edge">
<title>VerifyEMailDialogComponent&#45;&gt;LibModule</title>
<path fill="none" stroke="black" d="M3626.46,-122.28C3626.46,-137.95 3626.46,-158 3626.46,-158 3626.46,-158 2871.62,-158 2871.62,-158"/>
<polygon fill="black" stroke="black" points="2871.62,-154.5 2861.62,-158 2871.62,-161.5 2871.62,-154.5"/>
</g>
<!-- SidenavLayoutComponent -->
<g id="node16" class="node">
<title>SidenavLayoutComponent</title>
<polygon fill="#ffffb3" stroke="black" points="3589.09,-122 3422.91,-122 3422.91,-86 3589.09,-86 3589.09,-122"/>
<text text-anchor="middle" x="3506" y="-99.8" font-family="Times,serif" font-size="14.00">SidenavLayoutComponent</text>
</g>
<!-- SidenavLayoutComponent&#45;&gt;LibModule -->
<g id="edge16" class="edge">
<title>SidenavLayoutComponent&#45;&gt;LibModule</title>
<path fill="none" stroke="black" d="M3462.01,-122.24C3462.01,-137.57 3462.01,-157 3462.01,-157 3462.01,-157 2871.55,-157 2871.55,-157"/>
<polygon fill="black" stroke="black" points="2871.55,-153.5 2861.55,-157 2871.55,-160.5 2871.55,-153.5"/>
</g>
<!-- RbacComponent -->
<g id="node17" class="node">
<title>RbacComponent</title>
<polygon fill="#ffffb3" stroke="black" points="3405.1,-122 3294.9,-122 3294.9,-86 3405.1,-86 3405.1,-122"/>
<text text-anchor="middle" x="3350" y="-99.8" font-family="Times,serif" font-size="14.00">RbacComponent</text>
</g>
<!-- RbacComponent&#45;&gt;LibModule -->
<g id="edge17" class="edge">
<title>RbacComponent&#45;&gt;LibModule</title>
<path fill="none" stroke="black" d="M3301.94,-122.19C3301.94,-137.18 3301.94,-156 3301.94,-156 3301.94,-156 2871.68,-156 2871.68,-156"/>
<polygon fill="black" stroke="black" points="2871.68,-152.5 2861.68,-156 2871.68,-159.5 2871.68,-152.5"/>
</g>
<!-- DrawerComponent  -->
<g id="node42" class="node">
<title>DrawerComponent </title>
<polygon fill="#fb8072" stroke="black" points="3645.3,-252 3518.7,-252 3518.7,-216 3645.3,-216 3645.3,-252"/>
<text text-anchor="middle" x="3582" y="-229.8" font-family="Times,serif" font-size="14.00">DrawerComponent </text>
</g>
<!-- LibModule&#45;&gt;DrawerComponent  -->
<g id="edge41" class="edge">
<title>LibModule&#45;&gt;DrawerComponent </title>
<path fill="none" stroke="black" stroke-dasharray="5,2" d="M2861.61,-179C3013.97,-179 3553.82,-179 3553.82,-179 3553.82,-179 3553.82,-205.99 3553.82,-205.99"/>
<polygon fill="black" stroke="black" points="3550.32,-205.99 3553.82,-215.99 3557.32,-205.99 3550.32,-205.99"/>
</g>
<!-- FileBrowserDialogComponent  -->
<g id="node43" class="node">
<title>FileBrowserDialogComponent </title>
<polygon fill="#fb8072" stroke="black" points="3501.14,-252 3308.86,-252 3308.86,-216 3501.14,-216 3501.14,-252"/>
<text text-anchor="middle" x="3405" y="-229.8" font-family="Times,serif" font-size="14.00">FileBrowserDialogComponent </text>
</g>
<!-- LibModule&#45;&gt;FileBrowserDialogComponent  -->
<g id="edge42" class="edge">
<title>LibModule&#45;&gt;FileBrowserDialogComponent </title>
<path fill="none" stroke="black" stroke-dasharray="5,2" d="M2861.86,-182C2983.38,-182 3340.97,-182 3340.97,-182 3340.97,-182 3340.97,-205.81 3340.97,-205.81"/>
<polygon fill="black" stroke="black" points="3337.47,-205.81 3340.97,-215.81 3344.47,-205.81 3337.47,-205.81"/>
</g>
<!-- LibModule&#45;&gt;FileBrowserDialogComponent  -->
<g id="edge51" class="edge">
<title>LibModule&#45;&gt;FileBrowserDialogComponent </title>
<path fill="none" stroke="black" stroke-dasharray="5,2" d="M2861.63,-181C2987.97,-181 3373.01,-181 3373.01,-181 3373.01,-181 3373.01,-205.76 3373.01,-205.76"/>
<polygon fill="black" stroke="black" points="3369.51,-205.76 3373.01,-215.76 3376.51,-205.76 3369.51,-205.76"/>
</g>
<!-- ToolbarComponent  -->
<g id="node44" class="node">
<title>ToolbarComponent </title>
<polygon fill="#fb8072" stroke="black" points="3290.65,-252 3161.35,-252 3161.35,-216 3290.65,-216 3290.65,-252"/>
<text text-anchor="middle" x="3226" y="-229.8" font-family="Times,serif" font-size="14.00">ToolbarComponent </text>
</g>
<!-- LibModule&#45;&gt;ToolbarComponent  -->
<g id="edge43" class="edge">
<title>LibModule&#45;&gt;ToolbarComponent </title>
<path fill="none" stroke="black" stroke-dasharray="5,2" d="M2861.52,-183C2958.03,-183 3197.89,-183 3197.89,-183 3197.89,-183 3197.89,-205.88 3197.89,-205.88"/>
<polygon fill="black" stroke="black" points="3194.39,-205.88 3197.89,-215.88 3201.39,-205.88 3194.39,-205.88"/>
</g>
<!-- ShopsPipe  -->
<g id="node45" class="node">
<title>ShopsPipe </title>
<polygon fill="#fb8072" stroke="black" points="3143.12,-252 3064.88,-252 3064.88,-216 3143.12,-216 3143.12,-252"/>
<text text-anchor="middle" x="3104" y="-229.8" font-family="Times,serif" font-size="14.00">ShopsPipe </text>
</g>
<!-- LibModule&#45;&gt;ShopsPipe  -->
<g id="edge44" class="edge">
<title>LibModule&#45;&gt;ShopsPipe </title>
<path fill="none" stroke="black" stroke-dasharray="5,2" d="M2861.64,-185C2939.04,-185 3102.81,-185 3102.81,-185 3102.81,-185 3102.81,-205.75 3102.81,-205.75"/>
<polygon fill="black" stroke="black" points="3099.31,-205.75 3102.81,-215.75 3106.31,-205.75 3099.31,-205.75"/>
</g>
<!-- OnFetchComponent  -->
<g id="node46" class="node">
<title>OnFetchComponent </title>
<polygon fill="#fb8072" stroke="black" points="3046.54,-252 2913.46,-252 2913.46,-216 3046.54,-216 3046.54,-252"/>
<text text-anchor="middle" x="2980" y="-229.8" font-family="Times,serif" font-size="14.00">OnFetchComponent </text>
</g>
<!-- LibModule&#45;&gt;OnFetchComponent  -->
<g id="edge45" class="edge">
<title>LibModule&#45;&gt;OnFetchComponent </title>
<path fill="none" stroke="black" stroke-dasharray="5,2" d="M2861.68,-186C2892.87,-186 2931.07,-186 2931.07,-186 2931.07,-186 2931.07,-205.85 2931.07,-205.85"/>
<polygon fill="black" stroke="black" points="2927.57,-205.85 2931.07,-215.85 2934.57,-205.85 2927.57,-205.85"/>
</g>
<!-- BottomBarComponent  -->
<g id="node47" class="node">
<title>BottomBarComponent </title>
<polygon fill="#fb8072" stroke="black" points="2895.55,-252 2748.45,-252 2748.45,-216 2895.55,-216 2895.55,-252"/>
<text text-anchor="middle" x="2822" y="-229.8" font-family="Times,serif" font-size="14.00">BottomBarComponent </text>
</g>
<!-- LibModule&#45;&gt;BottomBarComponent  -->
<g id="edge46" class="edge">
<title>LibModule&#45;&gt;BottomBarComponent </title>
<path fill="none" stroke="black" stroke-dasharray="5,2" d="M2822,-187.11C2822,-187.11 2822,-205.99 2822,-205.99"/>
<polygon fill="black" stroke="black" points="2818.5,-205.99 2822,-215.99 2825.5,-205.99 2818.5,-205.99"/>
</g>
<!-- DataNotReadyComponent  -->
<g id="node48" class="node">
<title>DataNotReadyComponent </title>
<polygon fill="#fb8072" stroke="black" points="2730.02,-252 2561.98,-252 2561.98,-216 2730.02,-216 2730.02,-252"/>
<text text-anchor="middle" x="2646" y="-229.8" font-family="Times,serif" font-size="14.00">DataNotReadyComponent </text>
</g>
<!-- LibModule&#45;&gt;DataNotReadyComponent  -->
<g id="edge47" class="edge">
<title>LibModule&#45;&gt;DataNotReadyComponent </title>
<path fill="none" stroke="black" stroke-dasharray="5,2" d="M2782.46,-186C2748.58,-186 2705.2,-186 2705.2,-186 2705.2,-186 2705.2,-205.85 2705.2,-205.85"/>
<polygon fill="black" stroke="black" points="2701.71,-205.85 2705.2,-215.85 2708.71,-205.85 2701.71,-205.85"/>
</g>
<!-- UploadFilesComponent  -->
<g id="node49" class="node">
<title>UploadFilesComponent </title>
<polygon fill="#fb8072" stroke="black" points="2543.77,-252 2390.23,-252 2390.23,-216 2543.77,-216 2543.77,-252"/>
<text text-anchor="middle" x="2467" y="-229.8" font-family="Times,serif" font-size="14.00">UploadFilesComponent </text>
</g>
<!-- LibModule&#45;&gt;UploadFilesComponent  -->
<g id="edge48" class="edge">
<title>LibModule&#45;&gt;UploadFilesComponent </title>
<path fill="none" stroke="black" stroke-dasharray="5,2" d="M2782.45,-185C2702.41,-185 2528.75,-185 2528.75,-185 2528.75,-185 2528.75,-205.75 2528.75,-205.75"/>
<polygon fill="black" stroke="black" points="2525.25,-205.75 2528.75,-215.75 2532.25,-205.75 2525.25,-205.75"/>
</g>
<!-- DashCardComponent  -->
<g id="node50" class="node">
<title>DashCardComponent </title>
<polygon fill="#fb8072" stroke="black" points="2372.31,-252 2231.69,-252 2231.69,-216 2372.31,-216 2372.31,-252"/>
<text text-anchor="middle" x="2302" y="-229.8" font-family="Times,serif" font-size="14.00">DashCardComponent </text>
</g>
<!-- LibModule&#45;&gt;DashCardComponent  -->
<g id="edge49" class="edge">
<title>LibModule&#45;&gt;DashCardComponent </title>
<path fill="none" stroke="black" stroke-dasharray="5,2" d="M2782.26,-183C2661.98,-183 2310.07,-183 2310.07,-183 2310.07,-183 2310.07,-205.88 2310.07,-205.88"/>
<polygon fill="black" stroke="black" points="2306.57,-205.88 2310.07,-215.88 2313.57,-205.88 2306.57,-205.88"/>
</g>
<!-- UploadFileProgressComponent  -->
<g id="node51" class="node">
<title>UploadFileProgressComponent </title>
<polygon fill="#fb8072" stroke="black" points="2214.03,-252 2017.97,-252 2017.97,-216 2214.03,-216 2214.03,-252"/>
<text text-anchor="middle" x="2116" y="-229.8" font-family="Times,serif" font-size="14.00">UploadFileProgressComponent </text>
</g>
<!-- LibModule&#45;&gt;UploadFileProgressComponent  -->
<g id="edge50" class="edge">
<title>LibModule&#45;&gt;UploadFileProgressComponent </title>
<path fill="none" stroke="black" stroke-dasharray="5,2" d="M2782.51,-182C2639.75,-182 2158.9,-182 2158.9,-182 2158.9,-182 2158.9,-205.81 2158.9,-205.81"/>
<polygon fill="black" stroke="black" points="2155.4,-205.81 2158.9,-215.81 2162.4,-205.81 2155.4,-205.81"/>
</g>
<!-- SidenavLayoutComponent  -->
<g id="node52" class="node">
<title>SidenavLayoutComponent </title>
<polygon fill="#fb8072" stroke="black" points="1999.59,-252 1830.41,-252 1830.41,-216 1999.59,-216 1999.59,-252"/>
<text text-anchor="middle" x="1915" y="-229.8" font-family="Times,serif" font-size="14.00">SidenavLayoutComponent </text>
</g>
<!-- LibModule&#45;&gt;SidenavLayoutComponent  -->
<g id="edge52" class="edge">
<title>LibModule&#45;&gt;SidenavLayoutComponent </title>
<path fill="none" stroke="black" stroke-dasharray="5,2" d="M2782.39,-181C2616.88,-181 1989.15,-181 1989.15,-181 1989.15,-181 1989.15,-205.76 1989.15,-205.76"/>
<polygon fill="black" stroke="black" points="1985.65,-205.76 1989.15,-215.76 1992.65,-205.76 1985.65,-205.76"/>
</g>
<!-- RbacComponent  -->
<g id="node53" class="node">
<title>RbacComponent </title>
<polygon fill="#fb8072" stroke="black" points="1811.6,-252 1698.4,-252 1698.4,-216 1811.6,-216 1811.6,-252"/>
<text text-anchor="middle" x="1755" y="-229.8" font-family="Times,serif" font-size="14.00">RbacComponent </text>
</g>
<!-- LibModule&#45;&gt;RbacComponent  -->
<g id="edge53" class="edge">
<title>LibModule&#45;&gt;RbacComponent </title>
<path fill="none" stroke="black" stroke-dasharray="5,2" d="M2782.3,-179C2589.48,-179 1759.85,-179 1759.85,-179 1759.85,-179 1759.85,-205.99 1759.85,-205.99"/>
<polygon fill="black" stroke="black" points="1756.35,-205.99 1759.85,-215.99 1763.35,-205.99 1756.35,-205.99"/>
</g>
<!-- CommonModule -->
<g id="node19" class="node">
<title>CommonModule</title>
<polygon fill="#8dd3c7" stroke="black" points="3270.67,-122 3267.67,-126 3246.67,-126 3243.67,-122 3159.33,-122 3159.33,-86 3270.67,-86 3270.67,-122"/>
<text text-anchor="middle" x="3215" y="-99.8" font-family="Times,serif" font-size="14.00">CommonModule</text>
</g>
<!-- CommonModule&#45;&gt;LibModule -->
<g id="edge18" class="edge">
<title>CommonModule&#45;&gt;LibModule</title>
<path fill="none" stroke="black" d="M3234.36,-122.05C3234.36,-136.37 3234.36,-154 3234.36,-154 3234.36,-154 2871.54,-154 2871.54,-154"/>
<polygon fill="black" stroke="black" points="2871.54,-150.5 2861.54,-154 2871.54,-157.5 2871.54,-150.5"/>
</g>
<!-- MatProgressSpinnerModule -->
<g id="node20" class="node">
<title>MatProgressSpinnerModule</title>
<polygon fill="#8dd3c7" stroke="black" points="3140.86,-122 3137.86,-126 3116.86,-126 3113.86,-122 2967.14,-122 2967.14,-86 3140.86,-86 3140.86,-122"/>
<text text-anchor="middle" x="3054" y="-99.8" font-family="Times,serif" font-size="14.00">MatProgressSpinnerModule</text>
</g>
<!-- MatProgressSpinnerModule&#45;&gt;LibModule -->
<g id="edge19" class="edge">
<title>MatProgressSpinnerModule&#45;&gt;LibModule</title>
<path fill="none" stroke="black" d="M3006.8,-122.25C3006.8,-136.18 3006.8,-153 3006.8,-153 3006.8,-153 2871.64,-153 2871.64,-153"/>
<polygon fill="black" stroke="black" points="2871.64,-149.5 2861.64,-153 2871.64,-156.5 2871.64,-149.5"/>
</g>
<!-- MatCardModule -->
<g id="node21" class="node">
<title>MatCardModule</title>
<polygon fill="#8dd3c7" stroke="black" points="2948.81,-122 2945.81,-126 2924.81,-126 2921.81,-122 2839.19,-122 2839.19,-86 2948.81,-86 2948.81,-122"/>
<text text-anchor="middle" x="2894" y="-99.8" font-family="Times,serif" font-size="14.00">MatCardModule</text>
</g>
<!-- MatCardModule&#45;&gt;LibModule -->
<g id="edge20" class="edge">
<title>MatCardModule&#45;&gt;LibModule</title>
<path fill="none" stroke="black" d="M2850.42,-122.11C2850.42,-122.11 2850.42,-140.99 2850.42,-140.99"/>
<polygon fill="black" stroke="black" points="2846.92,-140.99 2850.42,-150.99 2853.92,-140.99 2846.92,-140.99"/>
</g>
<!-- MatExpansionModule -->
<g id="node22" class="node">
<title>MatExpansionModule</title>
<polygon fill="#8dd3c7" stroke="black" points="2821.7,-122 2818.7,-126 2797.7,-126 2794.7,-122 2680.3,-122 2680.3,-86 2821.7,-86 2821.7,-122"/>
<text text-anchor="middle" x="2751" y="-99.8" font-family="Times,serif" font-size="14.00">MatExpansionModule</text>
</g>
<!-- MatExpansionModule&#45;&gt;LibModule -->
<g id="edge21" class="edge">
<title>MatExpansionModule&#45;&gt;LibModule</title>
<path fill="none" stroke="black" d="M2802.05,-122.11C2802.05,-122.11 2802.05,-140.99 2802.05,-140.99"/>
<polygon fill="black" stroke="black" points="2798.55,-140.99 2802.05,-150.99 2805.55,-140.99 2798.55,-140.99"/>
</g>
<!-- MatDividerModule -->
<g id="node23" class="node">
<title>MatDividerModule</title>
<polygon fill="#8dd3c7" stroke="black" points="2662.36,-122 2659.36,-126 2638.36,-126 2635.36,-122 2537.64,-122 2537.64,-86 2662.36,-86 2662.36,-122"/>
<text text-anchor="middle" x="2600" y="-99.8" font-family="Times,serif" font-size="14.00">MatDividerModule</text>
</g>
<!-- MatDividerModule&#45;&gt;LibModule -->
<g id="edge22" class="edge">
<title>MatDividerModule&#45;&gt;LibModule</title>
<path fill="none" stroke="black" d="M2612.21,-122.25C2612.21,-136.18 2612.21,-153 2612.21,-153 2612.21,-153 2772.05,-153 2772.05,-153"/>
<polygon fill="black" stroke="black" points="2772.05,-156.5 2782.05,-153 2772.05,-149.5 2772.05,-156.5"/>
</g>
<!-- MatListModule -->
<g id="node24" class="node">
<title>MatListModule</title>
<polygon fill="#8dd3c7" stroke="black" points="2519.88,-122 2516.88,-126 2495.88,-126 2492.88,-122 2416.12,-122 2416.12,-86 2519.88,-86 2519.88,-122"/>
<text text-anchor="middle" x="2468" y="-99.8" font-family="Times,serif" font-size="14.00">MatListModule</text>
</g>
<!-- MatListModule&#45;&gt;LibModule -->
<g id="edge23" class="edge">
<title>MatListModule&#45;&gt;LibModule</title>
<path fill="none" stroke="black" d="M2468,-122.05C2468,-136.37 2468,-154 2468,-154 2468,-154 2772.42,-154 2772.42,-154"/>
<polygon fill="black" stroke="black" points="2772.42,-157.5 2782.42,-154 2772.42,-150.5 2772.42,-157.5"/>
</g>
<!-- MatProgressBarModule -->
<g id="node25" class="node">
<title>MatProgressBarModule</title>
<polygon fill="#8dd3c7" stroke="black" points="2398.02,-122 2395.02,-126 2374.02,-126 2371.02,-122 2247.98,-122 2247.98,-86 2398.02,-86 2398.02,-122"/>
<text text-anchor="middle" x="2323" y="-99.8" font-family="Times,serif" font-size="14.00">MatProgressBarModule</text>
</g>
<!-- MatProgressBarModule&#45;&gt;LibModule -->
<g id="edge24" class="edge">
<title>MatProgressBarModule&#45;&gt;LibModule</title>
<path fill="none" stroke="black" d="M2394.31,-122.19C2394.31,-137.18 2394.31,-156 2394.31,-156 2394.31,-156 2772.15,-156 2772.15,-156"/>
<polygon fill="black" stroke="black" points="2772.15,-159.5 2782.15,-156 2772.15,-152.5 2772.15,-159.5"/>
</g>
<!-- MatToolbarModule -->
<g id="node26" class="node">
<title>MatToolbarModule</title>
<polygon fill="#8dd3c7" stroke="black" points="2230.42,-122 2227.42,-126 2206.42,-126 2203.42,-122 2103.58,-122 2103.58,-86 2230.42,-86 2230.42,-122"/>
<text text-anchor="middle" x="2167" y="-99.8" font-family="Times,serif" font-size="14.00">MatToolbarModule</text>
</g>
<!-- MatToolbarModule&#45;&gt;LibModule -->
<g id="edge25" class="edge">
<title>MatToolbarModule&#45;&gt;LibModule</title>
<path fill="none" stroke="black" d="M2222.11,-122.24C2222.11,-137.57 2222.11,-157 2222.11,-157 2222.11,-157 2772.18,-157 2772.18,-157"/>
<polygon fill="black" stroke="black" points="2772.18,-160.5 2782.18,-157 2772.18,-153.5 2772.18,-160.5"/>
</g>
<!-- MatIconModule -->
<g id="node27" class="node">
<title>MatIconModule</title>
<polygon fill="#8dd3c7" stroke="black" points="2085.47,-122 2082.47,-126 2061.47,-126 2058.47,-122 1978.53,-122 1978.53,-86 2085.47,-86 2085.47,-122"/>
<text text-anchor="middle" x="2032" y="-99.8" font-family="Times,serif" font-size="14.00">MatIconModule</text>
</g>
<!-- MatIconModule&#45;&gt;LibModule -->
<g id="edge26" class="edge">
<title>MatIconModule&#45;&gt;LibModule</title>
<path fill="none" stroke="black" d="M2051.74,-122.28C2051.74,-137.95 2051.74,-158 2051.74,-158 2051.74,-158 2772.48,-158 2772.48,-158"/>
<polygon fill="black" stroke="black" points="2772.48,-161.5 2782.48,-158 2772.48,-154.5 2772.48,-161.5"/>
</g>
<!-- MatMenuModule -->
<g id="node28" class="node">
<title>MatMenuModule</title>
<polygon fill="#8dd3c7" stroke="black" points="1960.26,-122 1957.26,-126 1936.26,-126 1933.26,-122 1845.74,-122 1845.74,-86 1960.26,-86 1960.26,-122"/>
<text text-anchor="middle" x="1903" y="-99.8" font-family="Times,serif" font-size="14.00">MatMenuModule</text>
</g>
<!-- MatMenuModule&#45;&gt;LibModule -->
<g id="edge27" class="edge">
<title>MatMenuModule&#45;&gt;LibModule</title>
<path fill="none" stroke="black" d="M1903,-122.03C1903,-138.4 1903,-160 1903,-160 1903,-160 2772.22,-160 2772.22,-160"/>
<polygon fill="black" stroke="black" points="2772.22,-163.5 2782.22,-160 2772.22,-156.5 2772.22,-163.5"/>
</g>
<!-- MatButtonModule -->
<g id="node29" class="node">
<title>MatButtonModule</title>
<polygon fill="#8dd3c7" stroke="black" points="1828.22,-122 1825.22,-126 1804.22,-126 1801.22,-122 1707.78,-122 1707.78,-86 1828.22,-86 1828.22,-122"/>
<text text-anchor="middle" x="1768" y="-99.8" font-family="Times,serif" font-size="14.00">MatButtonModule</text>
</g>
<!-- MatButtonModule&#45;&gt;LibModule -->
<g id="edge28" class="edge">
<title>MatButtonModule&#45;&gt;LibModule</title>
<path fill="none" stroke="black" d="M1819.95,-122.04C1819.95,-138.73 1819.95,-161 1819.95,-161 1819.95,-161 2772.41,-161 2772.41,-161"/>
<polygon fill="black" stroke="black" points="2772.41,-164.5 2782.41,-161 2772.41,-157.5 2772.41,-164.5"/>
</g>
<!-- RouterModule -->
<g id="node30" class="node">
<title>RouterModule</title>
<polygon fill="#8dd3c7" stroke="black" points="1689.65,-122 1686.65,-126 1665.65,-126 1662.65,-122 1592.35,-122 1592.35,-86 1689.65,-86 1689.65,-122"/>
<text text-anchor="middle" x="1641" y="-99.8" font-family="Times,serif" font-size="14.00">RouterModule</text>
</g>
<!-- RouterModule&#45;&gt;LibModule -->
<g id="edge29" class="edge">
<title>RouterModule&#45;&gt;LibModule</title>
<path fill="none" stroke="black" d="M1641,-122.02C1641,-139.37 1641,-163 1641,-163 1641,-163 2772.37,-163 2772.37,-163"/>
<polygon fill="black" stroke="black" points="2772.37,-166.5 2782.37,-163 2772.37,-159.5 2772.37,-166.5"/>
</g>
<!-- MatFormFieldModule -->
<g id="node31" class="node">
<title>MatFormFieldModule</title>
<polygon fill="#8dd3c7" stroke="black" points="1574.71,-122 1571.71,-126 1550.71,-126 1547.71,-122 1433.29,-122 1433.29,-86 1574.71,-86 1574.71,-122"/>
<text text-anchor="middle" x="1504" y="-99.8" font-family="Times,serif" font-size="14.00">MatFormFieldModule</text>
</g>
<!-- MatFormFieldModule&#45;&gt;LibModule -->
<g id="edge30" class="edge">
<title>MatFormFieldModule&#45;&gt;LibModule</title>
<path fill="none" stroke="black" d="M1504,-122C1504,-139.68 1504,-164 1504,-164 1504,-164 2772.2,-164 2772.2,-164"/>
<polygon fill="black" stroke="black" points="2772.2,-167.5 2782.2,-164 2772.2,-160.5 2772.2,-167.5"/>
</g>
<!-- ReactiveFormsModule -->
<g id="node32" class="node">
<title>ReactiveFormsModule</title>
<polygon fill="#8dd3c7" stroke="black" points="1415.3,-122 1412.3,-126 1391.3,-126 1388.3,-122 1270.7,-122 1270.7,-86 1415.3,-86 1415.3,-122"/>
<text text-anchor="middle" x="1343" y="-99.8" font-family="Times,serif" font-size="14.00">ReactiveFormsModule</text>
</g>
<!-- ReactiveFormsModule&#45;&gt;LibModule -->
<g id="edge31" class="edge">
<title>ReactiveFormsModule&#45;&gt;LibModule</title>
<path fill="none" stroke="black" d="M1343,-122.3C1343,-140.27 1343,-165 1343,-165 1343,-165 2772.44,-165 2772.44,-165"/>
<polygon fill="black" stroke="black" points="2772.44,-168.5 2782.44,-165 2772.44,-161.5 2772.44,-168.5"/>
</g>
<!-- MatDialogModule -->
<g id="node33" class="node">
<title>MatDialogModule</title>
<polygon fill="#8dd3c7" stroke="black" points="1253.2,-122 1250.2,-126 1229.2,-126 1226.2,-122 1132.8,-122 1132.8,-86 1253.2,-86 1253.2,-122"/>
<text text-anchor="middle" x="1193" y="-99.8" font-family="Times,serif" font-size="14.00">MatDialogModule</text>
</g>
<!-- MatDialogModule&#45;&gt;LibModule -->
<g id="edge32" class="edge">
<title>MatDialogModule&#45;&gt;LibModule</title>
<path fill="none" stroke="black" d="M1193,-122.22C1193,-140.83 1193,-167 1193,-167 1193,-167 2772.14,-167 2772.14,-167"/>
<polygon fill="black" stroke="black" points="2772.14,-170.5 2782.14,-167 2772.14,-163.5 2772.14,-170.5"/>
</g>
<!-- MatSelectModule -->
<g id="node34" class="node">
<title>MatSelectModule</title>
<polygon fill="#8dd3c7" stroke="black" points="1115.31,-122 1112.31,-126 1091.31,-126 1088.31,-122 998.69,-122 998.69,-86 1115.31,-86 1115.31,-122"/>
<text text-anchor="middle" x="1057" y="-99.8" font-family="Times,serif" font-size="14.00">MatSelectModule</text>
</g>
<!-- MatSelectModule&#45;&gt;LibModule -->
<g id="edge33" class="edge">
<title>MatSelectModule&#45;&gt;LibModule</title>
<path fill="none" stroke="black" d="M1057,-122.17C1057,-141.09 1057,-168 1057,-168 1057,-168 2772.24,-168 2772.24,-168"/>
<polygon fill="black" stroke="black" points="2772.24,-171.5 2782.24,-168 2772.24,-164.5 2772.24,-171.5"/>
</g>
<!-- MatBadgeModule -->
<g id="node35" class="node">
<title>MatBadgeModule</title>
<polygon fill="#8dd3c7" stroke="black" points="980.87,-122 977.87,-126 956.87,-126 953.87,-122 863.13,-122 863.13,-86 980.87,-86 980.87,-122"/>
<text text-anchor="middle" x="922" y="-99.8" font-family="Times,serif" font-size="14.00">MatBadgeModule</text>
</g>
<!-- MatBadgeModule&#45;&gt;LibModule -->
<g id="edge34" class="edge">
<title>MatBadgeModule&#45;&gt;LibModule</title>
<path fill="none" stroke="black" d="M922,-122.11C922,-141.34 922,-169 922,-169 922,-169 2772.32,-169 2772.32,-169"/>
<polygon fill="black" stroke="black" points="2772.32,-172.5 2782.32,-169 2772.32,-165.5 2772.32,-172.5"/>
</g>
<!-- MatTooltipModule -->
<g id="node36" class="node">
<title>MatTooltipModule</title>
<polygon fill="#8dd3c7" stroke="black" points="844.82,-122 841.82,-126 820.82,-126 817.82,-122 721.18,-122 721.18,-86 844.82,-86 844.82,-122"/>
<text text-anchor="middle" x="783" y="-99.8" font-family="Times,serif" font-size="14.00">MatTooltipModule</text>
</g>
<!-- MatTooltipModule&#45;&gt;LibModule -->
<g id="edge35" class="edge">
<title>MatTooltipModule&#45;&gt;LibModule</title>
<path fill="none" stroke="black" d="M783,-122.31C783,-142.15 783,-171 783,-171 783,-171 2772.18,-171 2772.18,-171"/>
<polygon fill="black" stroke="black" points="2772.18,-174.5 2782.18,-171 2772.18,-167.5 2772.18,-174.5"/>
</g>
<!-- MatRippleModule -->
<g id="node37" class="node">
<title>MatRippleModule</title>
<polygon fill="#8dd3c7" stroke="black" points="703.93,-122 700.93,-126 679.93,-126 676.93,-122 584.07,-122 584.07,-86 703.93,-86 703.93,-122"/>
<text text-anchor="middle" x="644" y="-99.8" font-family="Times,serif" font-size="14.00">MatRippleModule</text>
</g>
<!-- MatRippleModule&#45;&gt;LibModule -->
<g id="edge36" class="edge">
<title>MatRippleModule&#45;&gt;LibModule</title>
<path fill="none" stroke="black" d="M644,-122.22C644,-142.37 644,-172 644,-172 644,-172 2772.34,-172 2772.34,-172"/>
<polygon fill="black" stroke="black" points="2772.34,-175.5 2782.34,-172 2772.34,-168.5 2772.34,-175.5"/>
</g>
<!-- MatSidenavModule -->
<g id="node38" class="node">
<title>MatSidenavModule</title>
<polygon fill="#8dd3c7" stroke="black" points="566.7,-122 563.7,-126 542.7,-126 539.7,-122 439.3,-122 439.3,-86 566.7,-86 566.7,-122"/>
<text text-anchor="middle" x="503" y="-99.8" font-family="Times,serif" font-size="14.00">MatSidenavModule</text>
</g>
<!-- MatSidenavModule&#45;&gt;LibModule -->
<g id="edge37" class="edge">
<title>MatSidenavModule&#45;&gt;LibModule</title>
<path fill="none" stroke="black" d="M503,-122.03C503,-142.77 503,-174 503,-174 503,-174 2772.24,-174 2772.24,-174"/>
<polygon fill="black" stroke="black" points="2772.24,-177.5 2782.24,-174 2772.24,-170.5 2772.24,-177.5"/>
</g>
<!-- MatPaginatorModule -->
<g id="node39" class="node">
<title>MatPaginatorModule</title>
<polygon fill="#8dd3c7" stroke="black" points="421.75,-122 418.75,-126 397.75,-126 394.75,-122 286.25,-122 286.25,-86 421.75,-86 421.75,-122"/>
<text text-anchor="middle" x="354" y="-99.8" font-family="Times,serif" font-size="14.00">MatPaginatorModule</text>
</g>
<!-- MatPaginatorModule&#45;&gt;LibModule -->
<g id="edge38" class="edge">
<title>MatPaginatorModule&#45;&gt;LibModule</title>
<path fill="none" stroke="black" d="M354,-122.28C354,-143.32 354,-175 354,-175 354,-175 2772.49,-175 2772.49,-175"/>
<polygon fill="black" stroke="black" points="2772.49,-178.5 2782.49,-175 2772.48,-171.5 2772.49,-178.5"/>
</g>
<!-- MatChipsModule -->
<g id="node40" class="node">
<title>MatChipsModule</title>
<polygon fill="#8dd3c7" stroke="black" points="268.27,-122 265.27,-126 244.27,-126 241.27,-122 153.73,-122 153.73,-86 268.27,-86 268.27,-122"/>
<text text-anchor="middle" x="211" y="-99.8" font-family="Times,serif" font-size="14.00">MatChipsModule</text>
</g>
<!-- MatChipsModule&#45;&gt;LibModule -->
<g id="edge39" class="edge">
<title>MatChipsModule&#45;&gt;LibModule</title>
<path fill="none" stroke="black" d="M211,-122.17C211,-143.5 211,-176 211,-176 211,-176 2772.29,-176 2772.29,-176"/>
<polygon fill="black" stroke="black" points="2772.29,-179.5 2782.29,-176 2772.29,-172.5 2772.29,-179.5"/>
</g>
<!-- MatInputModule -->
<g id="node41" class="node">
<title>MatInputModule</title>
<polygon fill="#8dd3c7" stroke="black" points="135.65,-122 132.65,-126 111.65,-126 108.65,-122 24.35,-122 24.35,-86 135.65,-86 135.65,-122"/>
<text text-anchor="middle" x="80" y="-99.8" font-family="Times,serif" font-size="14.00">MatInputModule</text>
</g>
<!-- MatInputModule&#45;&gt;LibModule -->
<g id="edge40" class="edge">
<title>MatInputModule&#45;&gt;LibModule</title>
<path fill="none" stroke="black" d="M80,-122.29C80,-144.21 80,-178 80,-178 80,-178 2772.45,-178 2772.45,-178"/>
<polygon fill="black" stroke="black" points="2772.45,-181.5 2782.45,-178 2772.45,-174.5 2772.45,-181.5"/>
</g>
</g>
</svg>
